<?xml version="1.0" encoding="UTF-8"?>
<!DOCTYPE svg PUBLIC "-//W3C//DTD SVG 1.1//EN" "http://www.w3.org/Graphics/SVG/1.1/DTD/svg11.dtd">
<!-- Creator: CorelDRAW 2021.5 -->
<svg xmlns="http://www.w3.org/2000/svg" xml:space="preserve" width="105.995mm" height="41.6455mm" version="1.1" style="shape-rendering:geometricPrecision; text-rendering:geometricPrecision; image-rendering:optimizeQuality; fill-rule:evenodd; clip-rule:evenodd"
viewBox="0 0 10704.8 4205.92"
 xmlns:xlink="http://www.w3.org/1999/xlink"
 xmlns:xodm="http://www.corel.com/coreldraw/odm/2003">
 <defs>
  <style type="text/css">
   <![CDATA[
    .fil0 {fill:#373435}
    .fil2 {fill:#F05345}
    .fil1 {fill:#F15D36}
   ]]>
  </style>
 </defs>
 <g id="Layer_x0020_1">
  <metadata id="CorelCorpID_0Corel-Layer"/>
  <path class="fil0" d="M645.46 3826.71l-230.65 0 0 72.72 141.3 0 0 208.83c-20.78,10.38 -61.3,18.69 -120.53,18.69 -164.15,0 -270.13,-104.92 -270.13,-282.59 0,-175.59 111.16,-281.55 281.56,-281.55 70.64,0 117.4,12.46 154.8,30.12l22.85 -73.76c-30.13,-14.55 -94.54,-32.21 -175.59,-32.21 -234.8,0 -379.22,152.72 -379.22,361.56 0,109.08 37.41,202.59 97.66,260.78 68.57,65.45 155.85,92.46 261.83,92.46 94.55,0 175.59,-22.84 216.11,-38.44l0 -336.61z"/>
  <path class="fil0" d="M1144.17 3974.24l74.81 220.26 96.62 0 -238.96 -700.26 -108.05 0 -238.96 700.26 93.51 0 72.73 -220.26 248.31 0zm-229.62 -70.64l0 0 68.57 -202.6c14.55,-42.6 24.94,-86.23 35.33,-126.75l2.07 0c10.39,40.52 20.78,82.07 36.37,127.79l69.61 201.56 -211.96 0z"/>
  <path class="fil0" d="M2021.05 4194.49l89.35 0 -43.64 -700.26 -115.32 0 -124.67 338.7c-31.18,88.32 -56.11,165.2 -74.82,235.85l-2.08 0c-18.7,-72.74 -41.56,-149.62 -70.64,-235.85l-119.49 -338.7 -115.32 0 -48.83 700.26 86.24 0 18.69 -300.25c6.24,-105.97 11.43,-222.34 13.51,-309.61l2.07 0c19.74,83.11 46.76,172.46 80.01,272.2l114.28 333.52 68.57 0 123.64 -339.74c35.33,-96.64 63.38,-184.95 88.31,-265.98l2.09 0c0,86.23 6.22,204.66 11.42,302.32l16.62 307.54z"/>
  <polygon class="fil0" points="2248.58,3494.23 2248.58,4194.49 2340.02,4194.49 2340.02,3494.23 "/>
  <path class="fil0" d="M2583.12 4194.49l0 -299.22c0,-116.36 -1.03,-200.51 -6.23,-288.82l3.12 -1.04c34.29,75.85 81.04,155.85 129.87,233.77l222.34 355.32 91.43 0 0 -700.26 -85.2 0 0 292.98c0,109.09 2.08,194.3 10.39,287.8l-3.11 1.04c-32.21,-71.7 -73.77,-145.46 -124.68,-227.53l-223.38 -354.3 -99.74 0 0 700.26 85.19 0z"/>
  <path class="fil0" d="M3715.59 3826.71l-230.65 0 0 72.72 141.3 0 0 208.83c-20.77,10.38 -61.29,18.69 -120.52,18.69 -164.15,0 -270.13,-104.92 -270.13,-282.59 0,-175.59 111.16,-281.55 281.55,-281.55 70.66,0 117.4,12.46 154.81,30.12l22.85 -73.76c-30.13,-14.55 -94.54,-32.21 -175.59,-32.21 -234.8,0 -379.22,152.72 -379.22,361.56 0,109.08 37.4,202.59 97.66,260.78 68.57,65.45 155.85,92.46 261.83,92.46 94.54,0 175.58,-22.84 216.1,-38.44l0 -336.61z"/>
  <path class="fil0" d="M4619.5 4194.49c-41.56,-44.68 -77.93,-84.15 -115.32,-124.67 51.95,-61.3 82.08,-148.57 100.78,-258.72l-83.12 0c-13.51,88.32 -35.33,155.86 -67.53,204.68 -44.67,-49.87 -111.17,-125.71 -170.39,-194.29l0 -4.14c111.16,-55.07 153.76,-113.25 153.76,-187.02 0,-91.43 -67.53,-148.57 -154.8,-148.57 -116.36,0 -177.67,87.27 -177.67,173.51 0,48.83 21.82,100.78 58.19,146.49l0 3.12c-80.01,43.64 -137.15,109.09 -137.15,204.67 0,104.93 78.96,196.36 215.07,196.36 77.92,0 144.42,-23.9 204.67,-78.97 27.01,27.03 45.72,47.8 65.45,67.53l108.05 0zm-361.56 -57.14l0 0c-85.2,0 -144.42,-61.29 -144.42,-141.3 0,-74.8 51.95,-118.44 90.4,-143.37 77.92,90.39 155.83,175.58 197.39,221.3 -33.25,36.37 -84.15,63.37 -143.37,63.37zm17.65 -593.24l0 0c58.19,0 82.09,47.78 82.09,90.38 0,60.26 -45.72,97.66 -116.36,138.19 -29.09,-37.41 -52.99,-75.86 -52.99,-126.76 0,-54.03 30.13,-101.81 87.27,-101.81z"/>
  <path class="fil0" d="M5528.59 4194.49l89.35 0 -43.64 -700.26 -115.31 0 -124.68 338.7c-31.17,88.32 -56.1,165.2 -74.81,235.85l-2.07 0c-18.7,-72.74 -41.56,-149.62 -70.66,-235.85l-119.49 -338.7 -115.31 0 -48.83 700.26 86.23 0 18.7 -300.25c6.23,-105.97 11.43,-222.34 13.5,-309.61l2.08 0c19.74,83.11 46.75,172.46 80,272.2l114.29 333.52 68.56 0 123.64 -339.74c35.32,-96.64 63.37,-184.95 88.31,-265.98l2.08 0c0,86.23 6.23,204.66 11.42,302.32l16.62 307.54z"/>
  <path class="fil0" d="M6039.76 3481.77c-187.02,0 -324.17,145.46 -324.17,367.8 0,211.93 128.84,356.36 314.82,356.36 178.7,0 325.19,-128.83 325.19,-368.83 0,-208.82 -123.63,-355.33 -315.84,-355.33zm-3.12 73.78l0 0c150.65,0 223.38,145.44 223.38,285.7 0,158.97 -81.04,290.91 -224.42,290.91 -143.38,0 -224.42,-134.03 -224.42,-284.67 0,-152.73 74.8,-291.94 225.46,-291.94z"/>
  <path class="fil0" d="M6558.2 4194.49l0 -299.22c0,-116.36 -1.04,-200.51 -6.23,-288.82l3.12 -1.04c34.28,75.85 81.04,155.85 129.87,233.77l222.34 355.32 91.43 0 0 -700.26 -85.2 0 0 292.98c0,109.09 2.08,194.3 10.39,287.8l-3.12 1.04c-32.21,-71.7 -73.77,-145.46 -124.68,-227.53l-223.38 -354.3 -99.74 0 0 700.26 85.2 0z"/>
  <polygon class="fil0" points="7155.6,3494.23 7155.6,4194.49 7247.04,4194.49 7247.04,3494.23 "/>
  <polygon class="fil0" points="7537.94,4194.49 7629.37,4194.49 7629.37,3571.12 7843.4,3571.12 7843.4,3494.23 7324.96,3494.23 7324.96,3571.12 7537.94,3571.12 "/>
  <path class="fil0" d="M8175.88 3481.77c-187.02,0 -324.17,145.46 -324.17,367.8 0,211.93 128.84,356.36 314.81,356.36 178.71,0 325.2,-128.83 325.2,-368.83 0,-208.82 -123.64,-355.33 -315.84,-355.33zm-3.12 73.78l0 0c150.64,0 223.38,145.44 223.38,285.7 0,158.97 -81.05,290.91 -224.42,290.91 -143.38,0 -224.43,-134.03 -224.43,-284.67 0,-152.73 74.82,-291.94 225.47,-291.94z"/>
  <path class="fil0" d="M8609.12 4194.49l90.39 0 0 -303.36 85.19 0c82.09,3.11 120.53,39.47 141.3,136.1 18.7,87.27 34.29,146.49 45.72,167.27l93.51 0c-14.55,-27.01 -31.18,-94.54 -54.03,-192.2 -16.62,-72.73 -48.83,-122.6 -101.82,-141.3l0 -3.11c72.73,-24.95 130.92,-86.24 130.92,-177.67 0,-55.07 -20.78,-102.85 -55.07,-134.03 -42.6,-38.44 -105.97,-57.14 -202.59,-57.14 -61.29,0 -127.8,6.24 -173.51,14.54l0 690.91zm90.39 -627.53l0 0c15.58,-4.14 45.72,-7.27 89.35,-7.27 95.58,0 161.03,39.48 161.03,129.87 0,80.02 -61.29,132.99 -157.92,132.99l-92.46 0 0 -255.58z"/>
  <polygon class="fil0" points="9167.04,3494.23 9167.04,4194.49 9258.48,4194.49 9258.48,3494.23 "/>
  <path class="fil0" d="M9501.58 4194.49l0 -299.22c0,-116.36 -1.03,-200.51 -6.23,-288.82l3.12 -1.04c34.29,75.85 81.04,155.85 129.87,233.77l222.34 355.32 91.43 0 0 -700.26 -85.2 0 0 292.98c0,109.09 2.08,194.3 10.39,287.8l-3.11 1.04c-32.21,-71.7 -73.78,-145.46 -124.68,-227.53l-223.38 -354.3 -99.74 0 0 700.26 85.19 0z"/>
  <path class="fil0" d="M10634.06 3826.71l-230.65 0 0 72.72 141.3 0 0 208.83c-20.77,10.38 -61.29,18.69 -120.53,18.69 -164.15,0 -270.13,-104.92 -270.13,-282.59 0,-175.59 111.17,-281.55 281.56,-281.55 70.64,0 117.4,12.46 154.8,30.12l22.86 -73.76c-30.14,-14.55 -94.55,-32.21 -175.6,-32.21 -234.8,0 -379.21,152.72 -379.21,361.56 0,109.08 37.4,202.59 97.66,260.78 68.57,65.45 155.84,92.46 261.82,92.46 94.55,0 175.59,-22.84 216.11,-38.44l0 -336.61z"/>
  <polygon class="fil0" points="-0,3117.15 10704.8,3117.15 10704.8,3145.23 -0,3145.23 "/>
  <path class="fil0" d="M5626.43 250.13c77.74,67.38 136.3,149.98 176.65,244.57 44.97,103.74 63.01,215.67 63.63,328.31 0,111.92 -15.14,224.14 -53.29,329.79 -35.02,95.17 -87.35,180.92 -158.01,253.65 -64.49,67.96 -139.74,122.95 -222.79,166.11 -88.79,46.15 -183.88,78.21 -281.59,99.28 -106.45,22.96 -215.18,33.35 -324.01,33.35 -49.58,0 -99.27,-1.17 -148.73,-4.65 -34.6,-2.47 -69.48,-6.46 -103.66,-13.21l0 1057.84 -389.46 0 0 -2666.6 19.35 -3.37c95.63,-16.69 192.84,-27.62 289.49,-36.36 123.49,-11.17 248.36,-14.6 372.38,-15.2 149.15,0 304.28,14.22 447.34,58.12 114.51,34.54 223.6,87.49 312.72,168.38zm1207.78 2034.74l0 0c-32.47,-135.15 -68.71,-269.39 -107.65,-402.78 -50.31,-172.28 -103.72,-343.69 -158.4,-514.63l-418.77 -1324.13 -419.64 0 881.91 2701.84 411.6 0 966.09 -2701.84 -416.23 0 -454.49 1327.58c-58.34,169.24 -114.27,339.33 -168.26,510.03 -41.91,133.69 -80.98,268.32 -116.16,403.93zm1765.3 -766.24l0 0c-132.26,-46.1 -262.39,-105.22 -379.12,-183.02 -100,-66.05 -186.72,-149.21 -248.74,-252.34 -62.18,-103.39 -88.06,-218.98 -88.69,-339.09 0.65,-102.9 20.31,-203.2 63.88,-296.67 42.52,-91.9 102.89,-170.7 179.97,-236.38 81.77,-70.39 176.89,-120.98 278.81,-155.4 115.32,-39.63 237.81,-55.12 359.46,-55.74 83.77,0 168.04,5.44 250.64,19.34 67.29,10.82 135.16,25.79 199.54,48.25 50.84,17.53 102.04,38.45 148.58,65.58l16.47 9.6 -109.72 324.58 -24.62 -13.98c-35.55,-20.2 -75.01,-36.98 -112.62,-52.44 -53.78,-21.08 -109.86,-36.79 -166.42,-48.8 -69.88,-15.36 -142.3,-21.19 -213.57,-21.78 -74.25,0.55 -153.09,8.62 -223,35.3 -53.67,19.92 -105.64,48.23 -146.64,88.56 -34.79,34.79 -63.94,74.7 -82.08,120.69 -16.46,41.77 -25.28,85.02 -25.28,129.96 0,70.37 14.12,138.79 51.57,198.99 40.4,63.78 101.57,113.87 165.69,152.66 91.71,55.96 195.38,100.38 295.57,138.63 132.2,50.45 264.85,113.31 380.77,195.16 96.33,68.61 178.11,153.55 232.98,258.93 57.01,107.38 78.87,226.98 78.87,347.72 0,104.1 -19.06,205.59 -58.91,301.77 -40.25,97.16 -101.18,181.83 -178.41,253.13 -85.49,78.9 -189,134.66 -298.35,172.96 -133.07,46.35 -276.99,63.08 -417.5,63.68 -87.94,-0.68 -175.4,-8.79 -262.11,-24.01 -81.85,-15.11 -163.02,-35.79 -241.27,-64 -64.71,-22.73 -129.66,-51.25 -186.98,-89.22l-14.48 -9.59 100.47 -333.37 25.91 16.06c54.32,33.71 111.98,61.56 171.66,84.82 66.26,26.77 135.03,47.01 204.77,61.83 74.55,15.05 149.84,22.54 225.72,23.18 98.29,-0.56 200.32,-14.22 290.33,-55.65 73.08,-33.63 135.53,-82.15 179.24,-150.36 43.92,-67.51 62.56,-143.49 62.56,-223.79 0.58,-71.75 -12.97,-141.87 -47.05,-205.34 -36.23,-66.19 -91.96,-118.12 -154.09,-159.9 -86.02,-58.37 -186.92,-103.57 -283.8,-140.52zm-4024.89 -1153.78l0 0 0 995.34c34.6,8.02 69.96,13.08 105.45,16.03 51.43,5.01 103.33,6.48 154.82,6.48 117.55,0 238.72,-16.31 347.14,-63.71 90.48,-39.54 165.17,-99.18 218.09,-182.8 56.3,-88.97 76.57,-193.37 77.13,-297.32 -0.55,-97.32 -19.45,-195.84 -74.15,-277.86 -51.47,-76.25 -121.94,-129.36 -207.37,-163.43 -101,-41.25 -212.99,-55.41 -321.45,-55.41 -64.34,0 -129.36,1.69 -193.44,7.79 -34.52,3.29 -71.61,7.36 -106.21,14.89z"/>
  <path class="fil1" d="M3146.95 112.64l659.85 0c45.37,0 82.47,37.13 82.47,82.48l0 659.84c0,45.38 -37.11,82.48 -82.47,82.48l-659.85 0c-45.36,0 -82.48,-37.11 -82.48,-82.48l0 -659.84c0,-45.36 37.13,-82.48 82.48,-82.48z"/>
  <path class="fil2" d="M3146.95 112.64l659.85 0c45.37,0 82.47,37.13 82.47,82.48l0 659.84c0,45.38 -37.11,82.48 -82.47,82.48l-659.85 0c-45.36,0 -82.48,-37.11 -82.48,-82.48l0 -659.84c0,-45.36 37.13,-82.48 82.48,-82.48z"/>
  <path class="fil2" d="M3146.95 1026.49l659.85 0c45.37,0 82.47,37.12 82.47,82.48l0 659.84c0,45.37 -37.11,82.47 -82.47,82.47l-659.85 0c-45.36,0 -82.48,-37.11 -82.48,-82.47l0 -659.84c0,-45.37 37.13,-82.48 82.48,-82.48z"/>
  <path class="fil2" d="M2227.36 1026.49l659.85 0c45.37,0 82.47,37.12 82.47,82.48l0 659.84c0,45.37 -37.11,82.47 -82.47,82.47l-659.85 0c-45.36,0 -82.47,-37.11 -82.47,-82.47l0 -659.84c0,-45.37 37.12,-82.48 82.47,-82.48z"/>
  <path class="fil2" d="M3146.95 1940.34l659.85 0c45.37,0 82.47,37.12 82.47,82.47l0 659.83c0,45.38 -37.11,82.48 -82.47,82.48l-659.85 0c-45.36,0 -82.48,-37.11 -82.48,-82.48l0 -659.83c0,-45.36 37.13,-82.47 82.48,-82.47z"/>
  <path class="fil2" d="M2227.36 1940.34l659.85 0c45.37,0 82.47,37.12 82.47,82.47l0 659.83c0,45.38 -37.11,82.48 -82.47,82.48l-659.85 0c-45.36,0 -82.47,-37.11 -82.47,-82.48l0 -659.83c0,-45.36 37.12,-82.47 82.47,-82.47z"/>
  <path class="fil2" d="M1305.43 1940.34l659.85 0c45.37,0 82.47,37.12 82.47,82.47l0 659.83c0,45.38 -37.11,82.48 -82.47,82.48l-659.85 0c-45.36,0 -82.47,-37.11 -82.47,-82.48l0 -659.83c0,-45.36 37.12,-82.47 82.47,-82.47z"/>
 </g>
</svg>
